<svg height='300px' width='300px'  fill="#000000" xmlns="http://www.w3.org/2000/svg" xmlns:xlink="http://www.w3.org/1999/xlink" version="1.1" x="0px" y="0px" viewBox="0 0 64 64" style="enable-background:new 0 0 64 64;" xml:space="preserve"><g><path d="M26,1H10C8.346,1,7,2.346,7,4v24c0,1.654,1.346,3,3,3h16c1.654,0,3-1.346,3-3V4C29,2.346,27.654,1,26,1z M27,28   c0,0.551-0.449,1-1,1H10c-0.551,0-1-0.449-1-1V4c0-0.551,0.449-1,1-1h16c0.551,0,1,0.449,1,1V28z"></path><path d="M18,7.586l-5.878,5.878C11.398,14.188,11,15.149,11,16.171C11,18.283,12.717,20,14.829,20c0.788,0,1.537-0.242,2.171-0.681   V23h2v-3.681C19.634,19.758,20.383,20,21.171,20C23.283,20,25,18.283,25,16.171c0-1.022-0.398-1.984-1.122-2.707L18,7.586z    M21.171,18c-0.488,0-0.947-0.19-1.293-0.536L18,15.586l-1.878,1.878C15.776,17.81,15.317,18,14.829,18   C13.82,18,13,17.18,13,16.171c0-0.488,0.19-0.947,0.536-1.293L18,10.414l4.464,4.464C22.81,15.224,23,15.683,23,16.171   C23,17.18,22.18,18,21.171,18z"></path><path d="M54,1H38c-1.654,0-3,1.346-3,3v24c0,1.654,1.346,3,3,3h16c1.654,0,3-1.346,3-3V4C57,2.346,55.654,1,54,1z M55,28   c0,0.551-0.449,1-1,1H38c-0.551,0-1-0.449-1-1V4c0-0.551,0.449-1,1-1h16c0.551,0,1,0.449,1,1V28z"></path><path d="M26,33H10c-1.654,0-3,1.346-3,3v24c0,1.654,1.346,3,3,3h16c1.654,0,3-1.346,3-3V36C29,34.346,27.654,33,26,33z M27,60   c0,0.551-0.449,1-1,1H10c-0.551,0-1-0.449-1-1V36c0-0.551,0.449-1,1-1h16c0.551,0,1,0.449,1,1V60z"></path><path d="M54,33H38c-1.654,0-3,1.346-3,3v24c0,1.654,1.346,3,3,3h16c1.654,0,3-1.346,3-3V36C57,34.346,55.654,33,54,33z M55,60   c0,0.551-0.449,1-1,1H38c-0.551,0-1-0.449-1-1V36c0-0.551,0.449-1,1-1h16c0.551,0,1,0.449,1,1V60z"></path><path d="M49.171,10c-1.022,0-1.984,0.398-2.707,1.122L46,11.586l-0.464-0.464C44.812,10.398,43.851,10,42.829,10   C40.717,10,39,11.717,39,13.829c0,1.022,0.398,1.984,1.122,2.707L46,22.414l5.878-5.878C52.602,15.812,53,14.851,53,13.829   C53,11.717,51.283,10,49.171,10z M50.464,15.122L46,19.586l-4.464-4.464C41.19,14.776,41,14.317,41,13.829   C41,12.82,41.82,12,42.829,12c0.488,0,0.947,0.19,1.293,0.536L46,14.414l1.878-1.878C48.224,12.19,48.683,12,49.171,12   C50.18,12,51,12.82,51,13.829C51,14.317,50.81,14.776,50.464,15.122z"></path><rect x="11" y="5" width="2" height="2"></rect><rect x="23" y="25" width="2" height="2"></rect><rect x="39" y="25" width="2" height="2"></rect><rect x="51" y="5" width="2" height="2"></rect><path d="M10.683,48L18,56.537L25.317,48L18,39.463L10.683,48z M18,53.463L13.317,48L18,42.537L22.683,48L18,53.463z"></path><rect x="23" y="37" width="2" height="2"></rect><rect x="11" y="57" width="2" height="2"></rect><path d="M49.998,44.126C49.999,44.084,50,44.042,50,44c0-2.206-1.794-4-4-4s-4,1.794-4,4c0,0.042,0.001,0.084,0.002,0.126   C40.278,44.57,39,46.139,39,48c0,2.206,1.794,4,4,4c0.733,0,1.409-0.216,2-0.562V55h2v-3.562C47.591,51.784,48.267,52,49,52   c2.206,0,4-1.794,4-4C53,46.139,51.722,44.57,49.998,44.126z M49,50c-1.103,0-2-0.897-2-2h-2c0,1.103-0.897,2-2,2s-2-0.897-2-2   c0-1.103,0.896-2,1.97-2c0,0,0,0,0.001,0l1.677,0.109l-0.519-1.432C44.042,44.438,44,44.216,44,44c0-1.103,0.897-2,2-2s2,0.897,2,2   c0,0.216-0.042,0.438-0.129,0.678l-0.519,1.432l1.52-0.093L49,46c1.103,0,2,0.897,2,2S50.103,50,49,50z"></path><rect x="39" y="37" width="2" height="2"></rect><rect x="51" y="57" width="2" height="2"></rect></g></svg>